# xmcd
#
# Track frame offsets:
#	150
#	20537
#	37137
#	54426
#	82065
#	97378
#	115590
#	138855
#	162864
#	181976
#	197427
#	215095
#
# Disc length: 3108 seconds
#
# Revision: 1
# Processed by: cddbd v1.5.2PL0 Copyright (c) Steve Scherf et al.
# Submitted via: EasyCDDAExtractor 9.0.0.1
#
DISCID=a70c220c
DTITLE=Michael Burks - I Smell Smoke
DYEAR=2003
DGENRE=Blues
TTITLE0=All Your Affection Is Gone
TTITLE1=One More Chance
TTITLE2=I Smell Smoke
TTITLE3=Time I Came In Out Of The Rain
TTITLE4=Hard Love
TTITLE5=Miss Mercy
TTITLE6=Let The Door Knob Hit You
TTITLE7=Lie To Me
TTITLE8=Willing To Crawl
TTITLE9=I Hope He's Worth My Pain
TTITLE10=Good Man, Bad Thing
TTITLE11=Snake Eggs
EXTD=
EXTT0=
EXTT1=
EXTT2=
EXTT3=
EXTT4=
EXTT5=
EXTT6=
EXTT7=
EXTT8=
EXTT9=
EXTT10=
EXTT11=
PLAYORDER=
